<?xml version="1.0" standalone="no"?>
<!DOCTYPE svg PUBLIC "-//W3C//DTD SVG 20010904//EN"
 "http://www.w3.org/TR/2001/REC-SVG-20010904/DTD/svg10.dtd">
<svg version="1.0" xmlns="http://www.w3.org/2000/svg"
 width="1024.000000pt" height="1024.000000pt" viewBox="0 0 1024.000000 1024.000000"
 preserveAspectRatio="xMidYMid meet">
<metadata>
Created by potrace 1.14, written by Peter Selinger 2001-2017
</metadata>
<g transform="translate(0.000000,1024.000000) scale(0.100000,-0.100000)"
fill="#000000" stroke="none">
<path d="M4765 8729 c-487 -57 -856 -163 -1280 -368 -672 -325 -1191 -795
-1564 -1414 -432 -717 -605 -1565 -480 -2357 136 -868 546 -1628 1184 -2195
446 -397 1066 -714 1650 -844 302 -68 510 -91 815 -91 405 0 765 56 1133 177
832 272 1499 771 1964 1468 317 475 499 968 580 1571 25 188 25 676 0 869 -32
242 -74 427 -152 660 -308 932 -973 1696 -1855 2134 -444 220 -837 336 -1307
386 -149 16 -567 18 -688 4z m620 -420 c634 -54 1216 -290 1765 -715 149 -116
402 -367 523 -519 310 -391 531 -857 635 -1341 52 -240 57 -296 57 -619 -1
-335 -10 -429 -69 -693 -106 -469 -300 -897 -581 -1277 -28 -38 -62 -95 -75
-125 -78 -178 -199 -296 -410 -400 -57 -29 -164 -93 -239 -144 -173 -119 -301
-193 -460 -269 -356 -169 -714 -271 -1101 -313 -205 -22 -583 -15 -775 14
-351 55 -585 123 -905 264 -214 94 -384 196 -685 407 -398 281 -752 736 -969
1246 -416 980 -355 2010 172 2885 155 257 278 417 487 626 387 388 847 668
1375 838 404 130 803 173 1255 135z"/>
<path d="M4933 7996 c-178 -43 -325 -195 -362 -374 -70 -335 211 -636 545
-584 282 44 467 309 409 587 -22 105 -55 165 -135 245 -121 122 -285 167 -457
126z m277 -128 c69 -34 143 -107 175 -173 32 -64 43 -162 22 -190 -21 -27 -40
-9 -66 61 -28 73 -60 121 -113 171 -69 63 -149 96 -263 111 -116 14 -38 53
100 49 75 -2 99 -7 145 -29z"/>
<path d="M4519 6987 c-41 -27 -79 -98 -79 -148 0 -20 8 -60 19 -90 16 -45 203
-463 325 -725 42 -89 85 -138 139 -158 23 -9 148 -32 277 -51 129 -19 250 -39
268 -44 17 -5 32 -8 32 -7 0 2 -7 23 -15 46 -31 88 -10 196 54 278 21 27 53
55 70 62 18 7 28 16 24 20 -11 10 -95 24 -305 52 l-178 23 -152 324 c-95 201
-164 337 -184 357 -74 79 -222 110 -295 61z"/>
<path d="M4258 6796 c-111 -146 -108 -139 -313 -866 -52 -184 -99 -351 -105
-370 -18 -61 -12 -140 15 -197 40 -87 118 -148 225 -177 51 -14 20 -15 -397
-15 l-453 -1 0 70 0 70 230 0 230 0 32 29 33 29 3 592 3 591 -30 29 -29 30
-569 0 c-564 0 -569 0 -592 -21 -12 -11 -26 -31 -30 -42 -4 -12 -7 -282 -5
-601 l2 -578 28 -29 28 -29 284 0 285 0 -7 -185 c-7 -182 -7 -185 13 -185 19
0 21 -6 21 -70 0 -38 4 -70 9 -70 5 0 38 13 73 28 80 36 261 96 353 117 181
41 248 45 920 45 l650 1 -103 34 c-57 18 -105 35 -107 37 -5 5 277 -2 301 -7
18 -4 33 -35 83 -170 34 -90 61 -167 61 -170 0 -19 186 -518 206 -552 47 -81
151 -119 242 -89 98 33 160 128 149 229 -3 28 -51 178 -106 332 -55 154 -129
363 -166 465 -36 102 -75 203 -86 225 -44 85 -125 146 -219 164 -30 5 -176 13
-325 16 -495 10 -576 15 -571 34 29 104 120 394 132 422 17 40 18 37 -141 389
-110 242 -167 375 -189 440 l-22 67 -46 -61z m-694 -382 c20 -20 20 -33 -1
-56 -15 -17 -41 -18 -415 -18 -256 0 -406 4 -419 10 -19 11 -24 35 -13 64 5
14 52 16 419 16 363 0 416 -2 429 -16z"/>
<path d="M6530 6356 c-225 -100 -546 -249 -553 -256 -4 -4 6 -30 23 -57 35
-57 49 -142 32 -192 -10 -28 -2 -49 112 -283 343 -704 362 -760 322 -948 -42
-194 -154 -353 -395 -562 -211 -182 -373 -279 -557 -334 -119 -35 -316 -38
-435 -6 -220 59 -366 206 -399 401 -28 167 43 332 206 477 86 76 262 222 292
241 12 9 22 18 22 22 0 11 -1349 3 -1440 -9 -488 -63 -939 -360 -1245 -820
-81 -122 -166 -273 -180 -317 l-6 -23 1054 0 1053 0 77 -160 76 -160 676 0
676 0 77 160 77 159 868 1 868 0 -7 23 c-30 97 -144 265 -248 365 -122 117
-241 189 -400 241 -72 24 -80 29 -91 61 -65 176 -117 299 -183 435 -84 175
-411 816 -475 933 -38 70 -38 73 -16 67 13 -3 62 -12 109 -19 103 -17 142 -5
195 57 52 60 70 124 70 242 0 88 -4 107 -27 155 -15 30 -33 62 -40 71 -18 22
-88 69 -102 69 -6 0 -45 -15 -86 -34z m116 -114 c33 -22 48 -183 25 -268 -36
-133 -99 -33 -89 142 7 112 26 151 64 126z m-2482 -2071 c24 -26 7 -57 -36
-64 -18 -4 -290 -6 -604 -7 -545 0 -573 1 -595 19 -21 16 -22 22 -11 45 l12
26 608 0 c587 0 610 -1 626 -19z m-18 -206 c27 -6 37 -30 24 -56 -10 -18 -29
-19 -625 -19 -538 0 -615 2 -629 15 -12 12 -13 21 -4 40 6 13 18 25 26 27 25
5 1185 -2 1208 -7z"/>
<path d="M5705 6076 c-58 -25 -115 -112 -115 -176 0 -96 94 -189 191 -190 50
0 129 43 159 87 20 30 25 49 25 103 0 56 -4 73 -28 108 -48 73 -152 103 -232
68z"/>
<path d="M2656 3496 c-33 -302 152 -625 437 -765 123 -60 213 -81 344 -81 156
0 280 39 409 128 182 125 292 310 329 555 l6 37 124 0 c69 0 125 3 125 8 0 4
-19 45 -43 92 l-42 85 -543 3 -542 2 -20 -32 c-43 -71 -19 -194 49 -251 96
-81 258 -52 316 56 l20 37 108 0 108 0 -7 -37 c-26 -147 -127 -273 -259 -325
-105 -41 -250 -29 -358 30 -151 81 -244 262 -219 423 6 35 13 72 17 82 7 16
-5 17 -173 17 l-180 0 -6 -64z"/>
<path d="M6181 3542 c-5 -10 -28 -64 -51 -121 l-41 -103 25 -94 c60 -225 197
-394 401 -495 167 -83 337 -101 517 -55 223 57 395 195 498 401 28 55 57 127
66 160 20 78 30 261 15 298 l-11 27 -171 0 -171 0 6 -22 c15 -52 18 -167 6
-219 -37 -157 -159 -284 -314 -325 -188 -50 -398 51 -489 235 -28 58 -31 74
-32 155 0 50 4 110 8 134 l9 42 -131 0 c-115 0 -131 -2 -140 -18z"/>
<path d="M6695 3543 c-71 -70 -53 -205 37 -277 69 -54 182 -47 255 17 71 63
90 149 51 227 l-23 45 -152 3 c-132 2 -153 0 -168 -15z"/>
</g>
</svg>
